<svg width="14" height="16" viewBox="0 0 14 16" fill="none" xmlns="http://www.w3.org/2000/svg">
<path d="M13.7965 4.34117L13.796 4.32872C13.789 4.17504 13.7844 4.01244 13.7816 3.83153C13.7685 2.94933 13.0672 2.2196 12.1849 2.17028C10.3453 2.06762 8.92221 1.46777 7.70627 0.282592L7.6959 0.272704C7.29929 -0.0909421 6.70103 -0.0909421 6.3043 0.272704L6.29392 0.282592C5.07798 1.46777 3.65489 2.06762 1.8153 2.1704C0.933098 2.2196 0.231684 2.94933 0.218622 3.83165C0.215937 4.01134 0.211176 4.17394 0.204218 4.32872L0.203485 4.35765C0.167719 6.2335 0.123286 8.56809 0.904289 10.6871C1.33373 11.8524 1.98412 12.8653 2.83727 13.698C3.80894 14.6462 5.08165 15.399 6.61997 15.9354C6.67002 15.9528 6.72202 15.967 6.775 15.9776C6.84971 15.9925 6.9249 16 7.0001 16C7.07529 16 7.15061 15.9925 7.22519 15.9776C7.27817 15.967 7.33054 15.9527 7.38083 15.9351C8.91733 15.3978 10.1887 14.6446 11.1595 13.6965C12.0123 12.8636 12.6627 11.8504 13.0925 10.6849C13.8764 8.55955 13.8321 6.22056 13.7965 4.34117ZM12.2116 10.3601C11.3879 12.5935 9.70639 14.1273 7.07102 15.0489C7.06162 15.0521 7.05161 15.0549 7.04123 15.057C7.01401 15.0623 6.9863 15.0623 6.95872 15.0568C6.94846 15.0548 6.93845 15.0521 6.92917 15.0489C4.291 14.129 2.60839 12.596 1.78527 10.3625C1.06542 8.40928 1.10619 6.26622 1.1422 4.3756L1.14245 4.3651C1.14977 4.20262 1.15465 4.03246 1.15734 3.84545C1.1632 3.45373 1.47521 3.12963 1.86767 3.10778C2.90868 3.04967 3.82323 2.8485 4.66356 2.49279C5.50279 2.13757 6.24815 1.63684 6.94199 0.962033C6.97727 0.932248 7.02305 0.932126 7.0582 0.962033C7.75217 1.63684 8.49753 2.13757 9.33664 2.49279C10.177 2.8485 11.0915 3.04967 12.1327 3.10778C12.5251 3.12963 12.8371 3.45373 12.8429 3.84557C12.8457 4.03356 12.8505 4.20372 12.8579 4.3651C12.8938 6.25792 12.9336 8.40269 12.2116 10.3601Z" fill="black"/>
<path d="M6.99988 4.01282C4.80115 4.01282 3.01245 5.80164 3.01245 8.00024C3.01245 10.199 4.80115 11.9878 6.99988 11.9878C9.19849 11.9878 10.9873 10.199 10.9873 8.00024C10.9873 5.80164 9.19849 4.01282 6.99988 4.01282ZM6.99988 11.0488C5.31885 11.0488 3.95129 9.68127 3.95129 8.00024C3.95129 6.31921 5.31885 4.95166 6.99988 4.95166C8.68079 4.95166 10.0483 6.31921 10.0483 8.00024C10.0483 9.68127 8.68079 11.0488 6.99988 11.0488Z" fill="#1DB954"/>
<path d="M8.14584 6.76233L6.29379 8.61438L5.79111 8.11169C5.60776 7.92834 5.31052 7.92834 5.12717 8.11169C4.94394 8.29504 4.94394 8.59228 5.12717 8.77551L5.96188 9.61023C6.05356 9.7019 6.17368 9.74768 6.29379 9.74768C6.41391 9.74768 6.53403 9.7019 6.6257 9.61023L8.80978 7.42615C8.99301 7.2428 8.99301 6.94556 8.80978 6.76233C8.62643 6.57886 8.32919 6.57886 8.14584 6.76233Z" fill="#1DB954"/>
</svg>
