<svg id="Layer_1" enable-background="new 0 0 512.001 512.001" height="512" viewBox="0 0 512.001 512.001" width="512" xmlns="http://www.w3.org/2000/svg"><path d="m503.478 113.854c-5.344-3.742-12.174-4.646-18.307-2.418l-109.002 39.604c-27.868 9.467-45.168 31.688-45.168 58.044v138.349c-58.632-39.968-140.425 3.331-139.999 74.801 4.94 119.391 175.072 119.366 179.999-.001v-213.149c0-12.272 11.379-17.932 18.161-20.213.152-.051.304-.104.454-.159l82.385-29.934v36.924c0 9.395-6 17.668-14.93 20.586-.118.039-.235.078-.352.119l-32.282 11.216c-10.435 3.625-15.954 15.022-12.329 25.456 3.626 10.433 15.022 15.953 25.456 12.328l32.127-11.162c25.315-8.364 42.31-31.865 42.31-58.543v-65.47c0-6.522-3.182-12.635-8.523-16.378zm-222.477 358.379c-27.57 0-50-22.43-50-50 2.747-66.332 97.264-66.312 100 0 0 27.57-22.43 50-50 50zm40-386.529v-65.47c0-6.523-3.182-12.637-8.523-16.38-5.343-3.743-12.174-4.646-18.307-2.418l-109.002 39.604c-27.868 9.467-45.168 31.688-45.168 58.044v138.349c-58.632-39.968-140.424 3.331-139.999 74.801 4.94 119.391 175.072 119.366 179.999-.001v-133.697l98.688-34.289c25.317-8.364 42.312-31.865 42.312-58.543zm-231 276.529c-27.57 0-50-22.43-50-50 2.747-66.332 97.264-66.312 100 0 0 27.57-22.43 50-50 50zm176.07-255.943c-.118.039-86.07 29.9-86.07 29.9v-37.106c0-12.272 11.379-17.932 18.161-20.213.152-.051 82.839-30.092 82.839-30.092v36.924c0 9.396-6 17.669-14.93 20.587z"/></svg>