<?xml version="1.0" encoding="utf-8"?>
<!-- Generator: Adobe Illustrator 25.0.0, SVG Export Plug-In . SVG Version: 6.00 Build 0)  -->
<svg version="1.1" id="Layer_1" xmlns="http://www.w3.org/2000/svg" xmlns:xlink="http://www.w3.org/1999/xlink" x="0px" y="0px"
	 viewBox="0 0 128 128" style="enable-background:new 0 0 128 128;" xml:space="preserve">
<style type="text/css">
	.st0{fill:#00D95F;}
</style>
<path d="M128.22,63.79c-2.14,85.34-125.87,85.32-128,0C2.36-21.55,126.09-21.54,128.22,63.79z"/>
<path class="st0" d="M117.55,63.79c-1.79,71.12-104.89,71.1-106.67,0C12.67-7.33,115.77-7.32,117.55,63.79z"/>
<g>
	<polygon points="64.22,77.01 54.56,67.25 64.22,57.49 73.87,67.25 	"/>
	<polygon points="77.89,63.18 68.24,53.42 77.89,43.66 87.55,53.42 	"/>
	<polygon points="91.57,77.01 81.91,67.25 91.57,57.49 101.22,67.25 	"/>
	<polygon points="50.54,63.18 40.89,53.42 50.54,43.66 60.2,53.42 	"/>
	<polygon points="36.87,77.01 27.21,67.25 36.87,57.49 46.52,67.25 	"/>
</g>
</svg>
