<?xml version="1.0" encoding="utf-8"?>
<!-- Generator: Adobe Illustrator 21.0.0, SVG Export Plug-In . SVG Version: 6.00 Build 0)  -->
<svg version="1.0" id="Layer_1" xmlns="http://www.w3.org/2000/svg" xmlns:xlink="http://www.w3.org/1999/xlink" x="0px" y="0px"
	 viewBox="0 0 172.5 174.6" style="enable-background:new 0 0 172.5 174.6;" xml:space="preserve">
<style type="text/css">
	.st0{clip-path:url(#SVGID_2_);}
	.st1{fill:#EFEFEF;}
	.st2{fill:#FFFFFF;}
	.st3{fill:none;stroke:#15A147;stroke-width:2;stroke-miterlimit:10;}
</style>
<g id="Layer_2">
	<g>
		<defs>
			<rect id="SVGID_1_" x="0.7" width="172.5" height="174.6"/>
		</defs>
		<clipPath id="SVGID_2_">
			<use xlink:href="#SVGID_1_"  style="overflow:visible;"/>
		</clipPath>
		<g class="st0">
			<path d="M126,222H46c-5.5,0-10-4.5-10-10V42c0-5.5,4.5-10,10-10h80c5.5,0,10,4.5,10,10v170C136,217.5,131.5,222,126,222z"/>
			<rect x="43" y="52" class="st1" width="86" height="144"/>
			<path class="st2" d="M93.5,44.1h-15c-0.8,0-1.5-0.7-1.5-1.5l0,0c0-0.8,0.7-1.5,1.5-1.5h15c0.8,0,1.5,0.7,1.5,1.5l0,0
				C95,43.5,94.3,44.1,93.5,44.1z"/>
		</g>
	</g>
</g>
<title>Asset 8</title>
<g>
	<rect x="56" y="92.5" width="60" height="15"/>
	<path class="st2" d="M71.5,103L71.5,103c-0.3,0-0.5-0.2-0.5-0.5v-4.9c0-0.3,0.2-0.5,0.5-0.5l0,0c0.3,0,0.5,0.2,0.5,0.5v4.9
		C72,102.8,71.7,103,71.5,103z"/>
	<path class="st2" d="M73.3,104.5L73.3,104.5c-0.3,0-0.5-0.2-0.5-0.5v-8c0-0.3,0.2-0.5,0.5-0.5l0,0c0.3,0,0.5,0.2,0.5,0.5v8
		C73.8,104.3,73.6,104.5,73.3,104.5z"/>
	<path class="st2" d="M75.2,101.5L75.2,101.5c-0.3,0-0.5-0.2-0.5-0.5v-2c0-0.3,0.2-0.5,0.5-0.5l0,0c0.3,0,0.5,0.2,0.5,0.5v2
		C75.7,101.3,75.5,101.5,75.2,101.5z"/>
	<path class="st2" d="M77,103L77,103c-0.3,0-0.5-0.2-0.5-0.5v-4.9c0-0.3,0.2-0.5,0.5-0.5l0,0c0.3,0,0.5,0.2,0.5,0.5v4.9
		C77.6,102.8,77.3,103,77,103z"/>
	<path class="st2" d="M78.9,100.9L78.9,100.9c-0.3,0-0.5-0.2-0.5-0.5v-0.8c0-0.3,0.2-0.5,0.5-0.5l0,0c0.3,0,0.5,0.2,0.5,0.5v0.8
		C79.4,100.7,79.2,100.9,78.9,100.9z"/>
	<path class="st2" d="M80.8,103L80.8,103c-0.3,0-0.5-0.2-0.5-0.5v-4.9c0-0.3,0.2-0.5,0.5-0.5l0,0c0.3,0,0.5,0.2,0.5,0.5v4.9
		C81.3,102.8,81.1,103,80.8,103z"/>
	<path class="st2" d="M82.6,103L82.6,103c-0.3,0-0.5-0.2-0.5-0.5v-4.9c0-0.3,0.2-0.5,0.5-0.5l0,0c0.3,0,0.5,0.2,0.5,0.5v4.9
		C83.2,102.8,82.9,103,82.6,103z"/>
	<path class="st2" d="M84.5,104.5L84.5,104.5c-0.3,0-0.5-0.2-0.5-0.5v-8c0-0.3,0.2-0.5,0.5-0.5l0,0c0.3,0,0.5,0.2,0.5,0.5v8
		C85,104.3,84.8,104.5,84.5,104.5z"/>
	<path class="st2" d="M86.4,103L86.4,103c-0.3,0-0.5-0.2-0.5-0.5v-4.9c0-0.3,0.2-0.5,0.5-0.5l0,0c0.3,0,0.5,0.2,0.5,0.5v4.9
		C86.9,102.8,86.7,103,86.4,103z"/>
	<path class="st2" d="M88.2,101.9L88.2,101.9c-0.3,0-0.5-0.2-0.5-0.5v-2.7c0-0.3,0.2-0.5,0.5-0.5l0,0c0.3,0,0.5,0.2,0.5,0.5v2.7
		C88.8,101.6,88.5,101.9,88.2,101.9z"/>
	<path class="st2" d="M90.1,104.5L90.1,104.5c-0.3,0-0.5-0.2-0.5-0.5v-8c0-0.3,0.2-0.5,0.5-0.5l0,0c0.3,0,0.5,0.2,0.5,0.5v8
		C90.6,104.3,90.4,104.5,90.1,104.5z"/>
	<path class="st2" d="M92,100.9L92,100.9c-0.3,0-0.5-0.2-0.5-0.5v-0.8c0-0.3,0.2-0.5,0.5-0.5l0,0c0.3,0,0.5,0.2,0.5,0.5v0.8
		C92.5,100.7,92.3,100.9,92,100.9z"/>
	<path class="st2" d="M93.8,103.8L93.8,103.8c-0.3,0-0.5-0.2-0.5-0.5v-6.4c0-0.3,0.2-0.5,0.5-0.5l0,0c0.3,0,0.5,0.2,0.5,0.5v6.4
		C94.4,103.5,94.1,103.8,93.8,103.8z"/>
	<path class="st2" d="M95.7,102L95.7,102c-0.3,0-0.5-0.2-0.5-0.5v-2.9c0-0.3,0.2-0.5,0.5-0.5l0,0c0.3,0,0.5,0.2,0.5,0.5v2.9
		C96.2,101.8,96,102,95.7,102z"/>
	<path class="st2" d="M97.6,103L97.6,103c-0.3,0-0.5-0.2-0.5-0.5v-4.9c0-0.3,0.2-0.5,0.5-0.5l0,0c0.3,0,0.5,0.2,0.5,0.5v4.9
		C98.1,102.8,97.9,103,97.6,103z"/>
	<path class="st2" d="M99.4,104.5L99.4,104.5c-0.3,0-0.5-0.2-0.5-0.5v-8c0-0.3,0.2-0.5,0.5-0.5l0,0c0.3,0,0.5,0.2,0.5,0.5v8
		C100,104.3,99.7,104.5,99.4,104.5z"/>
	<path class="st2" d="M101.3,103L101.3,103c-0.3,0-0.5-0.2-0.5-0.5v-4.9c0-0.3,0.2-0.5,0.5-0.5l0,0c0.3,0,0.5,0.2,0.5,0.5v4.9
		C101.8,102.8,101.6,103,101.3,103z"/>
	<path class="st2" d="M103.2,104.5L103.2,104.5c-0.3,0-0.5-0.2-0.5-0.5v-8c0-0.3,0.2-0.5,0.5-0.5l0,0c0.3,0,0.5,0.2,0.5,0.5v8
		C103.7,104.3,103.4,104.5,103.2,104.5z"/>
	<path class="st2" d="M106.9,100.9L106.9,100.9c-0.3,0-0.5-0.2-0.5-0.5v-0.8c0-0.3,0.2-0.5,0.5-0.5l0,0c0.3,0,0.5,0.2,0.5,0.5v0.8
		C107.4,100.7,107.2,100.9,106.9,100.9z"/>
	<path class="st2" d="M108.8,104.5L108.8,104.5c-0.3,0-0.5-0.2-0.5-0.5v-8c0-0.3,0.2-0.5,0.5-0.5l0,0c0.3,0,0.5,0.2,0.5,0.5v8
		C109.3,104.3,109,104.5,108.8,104.5z"/>
	<path class="st2" d="M110.8,100.4h-0.3c-0.2,0-0.4-0.2-0.4-0.4l0,0c0-0.2,0.2-0.4,0.4-0.4h0.3c0.2,0,0.4,0.2,0.4,0.4l0,0
		C111.1,100.2,111,100.4,110.8,100.4z"/>
	<path class="st2" d="M112.5,103.3L112.5,103.3c-0.3,0-0.5-0.2-0.5-0.5v-5.6c0-0.3,0.2-0.5,0.5-0.5l0,0c0.3,0,0.5,0.2,0.5,0.5v5.6
		C113,103.1,112.8,103.3,112.5,103.3z"/>
	<path class="st2" d="M105,103.8L105,103.8c-0.3,0-0.5-0.2-0.5-0.5v-6.4c0-0.3,0.2-0.5,0.5-0.5l0,0c0.3,0,0.5,0.2,0.5,0.5v6.4
		C105.6,103.5,105.3,103.8,105,103.8z"/>
	<path class="st2" d="M63.5,95.5c-2.5,0-4.5,2-4.5,4.5s2,4.5,4.5,4.5s4.5-2,4.5-4.5S66,95.5,63.5,95.5 M65.6,102
		c-0.1,0.1-0.3,0.2-0.4,0.1c-1.1-0.6-2.4-0.8-4-0.4c-0.2,0-0.3-0.1-0.3-0.2c0-0.2,0.1-0.3,0.2-0.3c1.7-0.4,3.2-0.2,4.4,0.5
		C65.6,101.7,65.6,101.9,65.6,102 M66.1,100.8c-0.1,0.2-0.3,0.2-0.5,0.1c-1.2-0.7-3.1-1-4.5-0.5c-0.2,0.1-0.4,0-0.4-0.2
		c-0.1-0.2,0-0.4,0.2-0.4c1.6-0.5,3.7-0.3,5.1,0.6C66.2,100.4,66.2,100.6,66.1,100.8 M66.2,99.5c-1.5-0.9-3.8-0.9-5.2-0.5
		c-0.2,0.1-0.5-0.1-0.5-0.3c-0.1-0.2,0.1-0.5,0.3-0.5c1.6-0.5,4.2-0.4,5.9,0.6c0.2,0.1,0.3,0.4,0.1,0.6
		C66.6,99.5,66.4,99.6,66.2,99.5"/>
</g>
<path class="st3" d="M114,136H58c-3.9,0-7-3.2-7-7V73c0-3.8,3.1-7,7-7h56c3.8,0,7,3.2,7,7v56C121,132.8,117.8,136,114,136z"/>
</svg>
